<svg width="37" height="37" viewBox="0 0 37 37" fill="none" xmlns="http://www.w3.org/2000/svg">
<path d="M33.3003 30.7289C33.7457 30.7289 34.1126 30.8583 34.3325 31.2689C34.682 31.9215 34.2531 32.6644 33.4976 32.7377C33.4017 32.7489 33.3112 32.7377 33.2153 32.7377H3.49268C2.74843 32.7375 2.303 32.366 2.29736 31.7416C2.29736 31.2014 2.68096 30.7798 3.22803 30.7347C3.34646 30.7235 3.46507 30.7347 3.5835 30.7347H18.3599L18.3481 30.7289H33.3003ZM14.2905 4.61462C14.1554 3.91704 14.8098 3.27564 15.5034 3.48376C16.5017 3.78198 17.4834 4.15323 18.4761 4.49646C18.8876 4.63706 19.2933 4.79483 19.7104 4.92419C20.1391 5.05924 20.3986 5.32957 20.5396 5.7572C21.3743 8.19919 22.2597 10.6245 23.0493 13.0834C23.3088 13.8935 23.6983 14.3548 24.5386 14.6136C26.3095 15.1707 28.0412 15.8404 29.7896 16.4818C31.7859 17.2189 33.1 18.5806 33.5737 20.6849C33.7824 21.6133 33.6978 22.5306 33.3989 23.4252C33.162 24.1452 32.5812 24.4261 31.8706 24.1674C27.6012 22.6313 23.3316 21.0899 19.0679 19.5482C15.0184 18.0909 10.98 16.6109 6.91357 15.1986C6.28777 14.9789 5.24552 13.2981 5.14893 12.9427C4.929 12.1045 5.06353 11.2208 5.22705 10.3207C5.56545 8.42448 5.83656 6.52231 6.14111 4.62048C6.2539 3.92849 6.80091 3.6021 7.46631 3.83826C8.40811 4.17584 9.36151 4.48533 10.106 5.20544C10.7771 5.84687 11.2507 6.60111 11.4819 7.50134C11.6793 8.2722 11.871 9.04908 12.0571 9.82556C12.1079 10.0391 12.2096 10.1628 12.4292 10.2416C13.4604 10.6106 14.4866 10.9958 15.6118 11.4037C15.4724 10.6746 15.35 10.0271 15.2271 9.38025C14.9169 7.79366 14.6007 6.20684 14.2905 4.61462Z" fill="#1E2124"/>
</svg>
